<svg width="960" height="420" viewBox="0 0 960 420" fill="none" xmlns="http://www.w3.org/2000/svg">
  <rect width="960" height="420" fill="#11101a"/>
  <g opacity=".18" stroke="#5b4c86">
    <path d="M56-30-50 450M122-30 16 450M188-30 82 450M254-30 148 450M320-30 214 450M386-30 280 450M452-30 346 450M518-30 412 450M584-30 478 450M650-30 544 450M716-30 610 450M782-30 676 450M848-30 742 450M914-30 808 450M980-30 874 450"/>
  </g>
  <text x="480" y="58" text-anchor="middle" font-family="Verdana, Arial, sans-serif" font-size="34" font-weight="700" fill="#ffd873">PIXEL PAINT STUDIO</text>
  <text x="480" y="86" text-anchor="middle" font-family="Verdana, Arial, sans-serif" font-size="15" fill="#9eeaff">fuller Paint-style pixel editor with setup, tools, undo and PNG export</text>

  <rect x="82" y="116" width="150" height="252" rx="5" fill="#171622" stroke="#b48b42" stroke-opacity=".45"/>
  <text x="108" y="154" font-family="Verdana, Arial, sans-serif" font-size="16" font-weight="700" fill="#9eeaff">TOOLS</text>
  <g font-family="Verdana, Arial, sans-serif" font-size="14" fill="#d8edf4">
    <rect x="106" y="178" width="102" height="28" fill="#241f19" stroke="#ffd873" stroke-opacity=".65"/>
    <text x="122" y="197">B Brush</text>
    <rect x="106" y="216" width="102" height="28" fill="#0b0d14" stroke="#354052"/>
    <text x="122" y="235">E Eraser</text>
    <rect x="106" y="254" width="102" height="28" fill="#0b0d14" stroke="#354052"/>
    <text x="122" y="273">F Fill</text>
    <rect x="106" y="292" width="102" height="28" fill="#0b0d14" stroke="#354052"/>
    <text x="122" y="311">O Ellipse</text>
  </g>

  <g filter="url(#glow)">
    <rect x="286" y="112" width="384" height="252" fill="#06070d" stroke="#d7a94b" stroke-opacity=".65" stroke-width="2"/>
    <g stroke="#273141" stroke-opacity=".75">
      <path d="M302 112v252M318 112v252M334 112v252M350 112v252M366 112v252M382 112v252M398 112v252M414 112v252M430 112v252M446 112v252M462 112v252M478 112v252M494 112v252M510 112v252M526 112v252M542 112v252M558 112v252M574 112v252M590 112v252M606 112v252M622 112v252M638 112v252M654 112v252"/>
      <path d="M286 128h384M286 144h384M286 160h384M286 176h384M286 192h384M286 208h384M286 224h384M286 240h384M286 256h384M286 272h384M286 288h384M286 304h384M286 320h384M286 336h384M286 352h384"/>
    </g>
    <rect x="382" y="176" width="16" height="16" fill="#ffd840"/>
    <rect x="398" y="176" width="16" height="16" fill="#ffd840"/>
    <rect x="382" y="192" width="16" height="16" fill="#ffd840"/>
    <rect x="398" y="192" width="16" height="16" fill="#ffd840"/>
    <rect x="478" y="224" width="16" height="16" fill="#ff485b"/>
    <rect x="494" y="224" width="16" height="16" fill="#ff485b"/>
    <rect x="494" y="240" width="16" height="16" fill="#ff485b"/>
    <rect x="510" y="240" width="16" height="16" fill="#ff485b"/>
    <rect x="526" y="256" width="16" height="16" fill="#58e6ff"/>
    <rect x="526" y="272" width="16" height="16" fill="#58e6ff"/>
    <rect x="526" y="288" width="16" height="16" fill="#58e6ff"/>
    <rect x="526" y="304" width="16" height="16" fill="#58e6ff"/>
    <rect x="350" y="304" width="16" height="16" fill="#61f274"/>
    <rect x="366" y="304" width="16" height="16" fill="#61f274"/>
    <rect x="350" y="320" width="16" height="16" fill="#61f274"/>
    <rect x="366" y="320" width="16" height="16" fill="#61f274"/>
    <rect x="430" y="288" width="16" height="16" fill="#bd73ff"/>
    <rect x="446" y="288" width="16" height="16" fill="#bd73ff"/>
    <rect x="462" y="288" width="16" height="16" fill="#bd73ff"/>
    <rect x="446" y="304" width="16" height="16" fill="#bd73ff"/>
  </g>

  <rect x="728" y="116" width="150" height="252" rx="5" fill="#171622" stroke="#b48b42" stroke-opacity=".45"/>
  <text x="754" y="154" font-family="Verdana, Arial, sans-serif" font-size="16" font-weight="700" fill="#9eeaff">PALETTE</text>
  <g>
    <rect x="754" y="178" width="26" height="26" fill="#14141f"/>
    <rect x="788" y="178" width="26" height="26" fill="#ffffff"/>
    <rect x="822" y="178" width="26" height="26" fill="#ffd840"/>
    <rect x="754" y="212" width="26" height="26" fill="#ff9440"/>
    <rect x="788" y="212" width="26" height="26" fill="#ff485b"/>
    <rect x="822" y="212" width="26" height="26" fill="#bd73ff"/>
    <rect x="754" y="246" width="26" height="26" fill="#5290ff"/>
    <rect x="788" y="246" width="26" height="26" fill="#58e6ff"/>
    <rect x="822" y="246" width="26" height="26" fill="#61f274"/>
  </g>
  <rect x="754" y="298" width="96" height="30" fill="#08202a" stroke="#58e6ff" stroke-opacity=".65"/>
  <text x="773" y="319" font-family="Verdana, Arial, sans-serif" font-size="13" font-weight="700" fill="#c7f7ff">Export PNG</text>
  <rect x="754" y="336" width="96" height="24" fill="#141821" stroke="#798492" stroke-opacity=".65"/>
  <text x="786" y="353" font-family="Verdana, Arial, sans-serif" font-size="12" fill="#d8edf4">Undo</text>

  <defs>
    <filter id="glow" x="250" y="80" width="460" height="320" filterUnits="userSpaceOnUse">
      <feGaussianBlur stdDeviation="5" result="blur"/>
      <feColorMatrix in="blur" type="matrix" values="0 0 0 0 0.75 0 0 0 0 0.52 0 0 0 0 0.12 0 0 0 .45 0"/>
      <feBlend in="SourceGraphic"/>
    </filter>
  </defs>
</svg>
